<?xml version="1.0" encoding="UTF-8" standalone="no"?>
<!-- Created with Inkscape (http://www.inkscape.org/) -->

<svg
   width="512"
   height="512"
   viewBox="0 0 512 512"
   version="1.1"
   id="svg5"
   inkscape:version="1.2.2 (b0a8486541, 2022-12-01)"
   sodipodi:docname="icon.svg"
   xmlns:inkscape="http://www.inkscape.org/namespaces/inkscape"
   xmlns:sodipodi="http://sodipodi.sourceforge.net/DTD/sodipodi-0.dtd"
   xmlns="http://www.w3.org/2000/svg"
   xmlns:svg="http://www.w3.org/2000/svg">
  <sodipodi:namedview
     id="namedview7"
     pagecolor="#ffffff"
     bordercolor="#000000"
     borderopacity="0.25"
     inkscape:showpageshadow="2"
     inkscape:pageopacity="0.0"
     inkscape:pagecheckerboard="true"
     inkscape:deskcolor="#d1d1d1"
     inkscape:document-units="px"
     showgrid="false"
     inkscape:zoom="1"
     inkscape:cx="226.5"
     inkscape:cy="190"
     inkscape:window-width="1920"
     inkscape:window-height="1011"
     inkscape:window-x="0"
     inkscape:window-y="0"
     inkscape:window-maximized="1"
     inkscape:current-layer="layer1"
     showguides="true" />
  <defs
     id="defs2" />
  <g
     inkscape:label="Слой 1"
     inkscape:groupmode="layer"
     id="layer1"
     transform="translate(-139.98839,-170.99506)">
    <circle
       style="display:inline;fill:#00829b;fill-opacity:1;stroke-width:1.17177"
       id="path294"
       cx="395.9884"
       cy="426.99509"
       r="255.99998" />
    <g
       id="g973"
       transform="translate(3.0033957,99.174471)"
       style="fill:#f6f7fa;fill-opacity:1">
      <g
         id="g913"
         transform="matrix(96.901883,0,0,96.901883,-14929.558,-16686.653)"
         style="fill:#f6f7fa;fill-opacity:1">
        <g
           id="g895"
           transform="translate(0.0173,-0.00340573)"
           style="fill:#f6f7fa;fill-opacity:1">
          <path
             id="path891"
             style="fill:#f6f7fa;fill-opacity:1;stroke-width:0.264583"
             d="M 157.28776 175.80007 L 156.72348 176.36437 C 156.72287 176.36498 156.72226 176.36558 156.72166 176.36619 C 156.56875 176.52107 156.56936 176.77153 156.72348 176.92565 C 156.87699 177.07917 157.12608 177.08037 157.28109 176.92926 C 157.28139 176.92896 157.28169 176.92865 157.28199 176.92835 L 157.28292 176.92746 C 157.28353 176.92686 157.28413 176.92625 157.28473 176.92565 L 157.6612 176.54916 L 157.47412 176.36208 C 157.37185 176.25981 157.38572 176.09769 157.47512 175.98752 L 157.28776 175.80007 z " />
          <path
             id="path299"
             style="fill:#f6f7fa;fill-opacity:1;stroke-width:0.264583"
             d="M 158.72643 173.99751 C 158.48608 173.99722 158.24942 174.09015 158.07312 174.26645 C 157.9957 174.34387 157.93423 174.43283 157.88953 174.52847 L 158.4121 175.05105 C 158.52224 174.96155 158.68293 174.94916 158.78518 175.05139 L 159.34529 175.61144 C 159.35807 175.60003 159.37056 175.58824 159.38274 175.57606 C 159.65794 175.30085 159.72944 174.87802 159.56106 174.52442 C 159.54346 174.48662 159.50645 174.45851 159.46425 174.45091 C 159.42195 174.44391 159.37876 174.45792 159.34844 174.48782 L 159.00859 174.82764 C 158.95709 174.87914 158.873 174.87914 158.82153 174.82764 C 158.77003 174.77614 158.77003 174.69205 158.82153 174.64058 L 159.16135 174.30073 C 159.19165 174.27043 159.20525 174.22704 159.19795 174.18456 C 159.19395 174.15816 159.18076 174.13424 159.16256 174.11544 L 159.1622 174.11566 C 159.1513 174.10436 159.13841 174.09477 159.12441 174.08777 C 158.99726 174.02719 158.86126 173.99767 158.72643 173.99751 z " />
        </g>
        <path
           id="path318"
           style="fill:#f6f7fa;fill-opacity:1;stroke-width:0.264583"
           d="m 158.60981,175.23117 c -0.0521,-0.0464 -0.1323,-0.0449 -0.18235,0.005 l -0.0928,0.0928 -0.72643,-0.72643 -0.0837,-0.25102 c -0.0108,-0.0333 -0.0353,-0.0607 -0.0667,-0.0766 l -0.43616,-0.25971 -0.56223,0.56253 0.25963,0.43606 c 0.018,0.0302 0.0439,0.0552 0.0766,0.0667 l 0.25103,0.0837 0.72644,0.72643 -0.0935,0.0935 c -0.0516,0.0516 -0.0516,0.13547 0,0.18708 l 0.74836,0.74836 c 0.258,0.258 0.67745,0.258 0.93545,0 0.25799,-0.25799 0.25799,-0.67745 0,-0.93544 l -0.74836,-0.74836 -0.005,-0.005 z m -0.0892,0.28502 0.65481,0.65481 c 0.15473,0.15473 0.15473,0.40654 0,0.56126 -0.15472,0.15472 -0.40654,0.15473 -0.56126,1e-5 l -0.65481,-0.65481 z m -1.23069,-1.02826 0.0764,0.22839 c 0.007,0.0193 0.0175,0.0372 0.0322,0.0518 l 0.74836,0.74835 -0.18709,0.18709 -0.74835,-0.74836 c -0.0144,-0.0144 -0.0325,-0.0254 -0.0519,-0.0321 l -0.22838,-0.0764 -0.12024,-0.23932 0.23934,-0.23935 z"
           sodipodi:nodetypes="ccccccccscccscsssccccscsccccccccccccc" />
      </g>
    </g>
  </g>
</svg>
